<svg width="180" height="180" viewBox="0 0 180 180" fill="none" xmlns="http://www.w3.org/2000/svg">
<rect width="180" height="180" rx="90" fill="url(#paint0_linear_29_44)"/>
<path fill-rule="evenodd" clip-rule="evenodd" d="M88.3052 132.562H87.5737L86.8421 134.092V137.151H87.5737L88.3052 132.562ZM102.937 121.091H102.205L96.3527 126.444V127.974L99.2791 132.562L101.474 138.68V143.269L100.742 144.799L97.8159 147.858H95.6211L94.8895 148.622L94.158 147.858H91.9632L88.3052 144.034L87.5737 140.21H86.8421V142.504L89.0368 147.093L92.6948 150.152H94.158L94.8895 150.917H102.205L105.132 149.387L108.79 145.563L110.253 141.739V135.621L109.521 134.857L108.79 131.033L102.937 121.091ZM118.3 84.3819H117.569L116.837 86.6762H117.569L118.3 84.3819ZM139.516 49.9673L137.322 52.2616L136.59 54.5559L132.201 60.6741L131.469 62.9684L127.811 67.557L127.079 69.8513L119.764 80.5581L119.032 82.8524H119.764L127.079 71.3808L127.811 69.0865L135.127 58.3798L135.859 59.1446V143.269L135.127 144.799L130.737 149.387L128.543 150.152V150.917H153.417V150.152L151.222 149.387L147.564 145.563L146.101 142.504V58.3798L148.296 54.5559L151.222 51.4969L153.417 50.7321V49.9673H139.516ZM52.4574 49.9673V50.7321H53.189L57.5785 55.3207L59.7733 59.1446V141.739L58.3101 144.799L53.189 150.152H52.4574V150.917H67.8207V150.152L62.6996 145.563L60.5049 140.975V65.2627L61.2364 64.4979L62.6996 65.2627L65.626 72.1456L70.0155 79.0285L72.9419 85.9114L74.405 87.441L75.8682 91.2648L77.3314 92.7943L80.9894 101.207L82.4525 102.736L84.6473 107.325H85.3789L87.5737 102.736L89.0368 95.0886L86.1105 90.5L83.9157 85.1467L82.4525 83.6171L78.7946 75.2047L74.405 68.3218L64.8944 49.9673H52.4574ZM27.5833 30.0834V30.8481L29.7781 31.6129L32.7045 34.672L34.1676 37.7311V123.385L31.9729 127.209L29.7781 129.503L27.5833 130.268V131.033H52.4574V130.268H45.1415L44.4099 129.503V31.6129L45.1415 30.8481H69.2839L70.0155 31.6129H72.2103L74.405 33.1424H75.8682L81.7209 36.9663L87.5737 43.0844L90.5 47.673L93.4264 53.7912V55.3207L95.6211 60.6741L96.3527 67.557L97.0843 68.3218V72.9104L97.8159 73.6751V87.441L97.0843 88.2057V92.7943L96.3527 93.5591L95.6211 100.442L94.8895 101.207L93.4264 107.325L86.8421 118.796L79.5262 125.679L73.6735 128.738L67.8207 130.268V131.033L73.6735 130.268L74.405 129.503H76.5998L77.3314 128.738L80.9894 127.974L91.2316 121.856L96.3527 117.267V116.502L102.205 109.619L106.595 100.442V98.9125L108.058 95.8534V93.5591L108.79 92.7943V89.7353L109.521 88.9705V72.1456L108.79 71.3808V68.3218L108.058 67.557V65.2627L107.327 64.4979L106.595 60.6741L104.4 56.8503V55.3207L102.937 53.7912L100.742 49.2026L97.8159 46.1435V45.3787L91.2316 39.2606L80.9894 33.1424H79.5262L74.405 30.8481H71.4787L70.7471 30.0834H27.5833Z" fill="#FFFDFD"/>
<defs>
<linearGradient id="paint0_linear_29_44" x1="0.189702" y1="0.0059578" x2="172.014" y2="187.429" gradientUnits="userSpaceOnUse">
<stop stop-color="#235347" stop-opacity="0.5"/>
<stop offset="0.5" stop-color="#235347" stop-opacity="0.96"/>
<stop offset="1" stop-color="#235347" stop-opacity="0.5"/>
</linearGradient>
</defs>
</svg>
