<svg width="534" height="512" viewBox="0 0 534 512" fill="none" xmlns="http://www.w3.org/2000/svg">
<rect width="512" height="512" rx="256" fill="url(#paint0_linear_23_9)"/>
<g filter="url(#filter0_d_23_9)">
<path d="M106.18 225.751C97.0594 226.188 90.5058 223.922 86.519 218.952C81.713 222.666 78.1905 224.523 75.9513 224.523C74.7498 224.523 73.8487 223.922 73.248 222.72C72.7018 221.573 72.4288 220.317 72.4288 218.952C72.4288 216.331 73.4391 212.562 75.4598 207.647C77.8628 202.076 80.0746 199.291 82.0953 199.291C83.133 199.291 83.9249 200.93 84.471 204.206C85.3994 209.122 86.246 212.508 87.0105 214.364C88.8128 212.453 91.0519 209.859 93.728 206.582C96.4587 203.305 99.5989 199.346 103.149 194.704C111.996 183.071 117.867 176.709 120.762 175.616C121.745 175.234 122.728 175.043 123.711 175.043C124.803 175.043 125.677 175.289 126.332 175.78C127.042 176.217 127.397 176.736 127.397 177.337C127.397 178.265 126.605 178.811 125.021 178.975C123.875 179.576 122.455 180.613 120.762 182.088C119.123 183.563 117.376 185.256 115.519 187.167C113.716 189.024 112.023 190.881 110.44 192.738C108.856 194.54 107.572 196.096 106.589 197.407C100.746 205.544 94.9022 212.043 89.0585 216.904L88.567 217.314C90.3147 219.88 92.4173 221.655 94.8749 222.638C97.3325 223.621 100.063 224.113 103.067 224.113C108.037 224.113 112.761 223.348 117.239 221.819C121.772 220.345 125.841 218.133 129.445 215.184C133.104 212.18 136.108 208.521 138.456 204.206C141.023 199.51 142.307 195.031 142.307 190.772C142.307 187.877 141.678 185.146 140.422 182.58C139.166 179.958 137.473 177.719 135.343 175.862C133.268 174.005 130.947 172.804 128.38 172.258C125.376 171.602 122.236 171.275 118.959 171.275C110.549 171.275 102.794 173.213 95.6941 177.091C88.212 181.187 84.471 185.774 84.471 190.853C84.471 192.219 84.8806 193.393 85.6998 194.376C86.3552 195.141 86.8194 195.577 87.0925 195.687H86.6009C85.0718 195.414 83.761 194.649 82.6688 193.393C81.5765 192.137 81.0304 190.744 81.0304 189.215C81.0304 186.375 81.9042 183.781 83.6518 181.433C85.4541 179.03 88.0482 176.845 91.4342 174.879C98.2063 171.001 106.207 169.063 115.437 169.063C117.512 169.063 119.587 169.172 121.663 169.39C123.738 169.609 125.786 169.937 127.807 170.373C131.357 171.138 134.579 172.585 137.473 174.715C140.368 176.845 142.689 179.439 144.436 182.498C146.184 185.556 147.058 188.86 147.058 192.41C147.058 196.506 145.856 200.738 143.453 205.108C141.05 209.531 137.937 213.245 134.115 216.249C130.346 219.198 126.086 221.437 121.335 222.966C116.584 224.55 111.532 225.478 106.18 225.751ZM76.3609 223.048C78.7093 222.01 81.5492 219.853 84.8806 216.576C83.2968 213.955 82.2592 211.743 81.7677 209.941C81.44 208.739 81.1942 206.91 81.0304 204.452C77.2621 209.859 75.3779 214.583 75.3779 218.624C75.3779 220.317 75.7056 221.792 76.3609 223.048ZM198.905 230.175C196.72 230.175 194.836 229.301 193.252 227.554C191.723 225.806 190.385 223.567 189.238 220.836C188.092 218.105 187.081 215.293 186.207 212.398C184.187 205.79 183.34 201.858 183.668 200.602C180.446 204.916 177.66 208.521 175.312 211.415C172.964 214.255 171.052 216.385 169.578 217.805C163.133 224.031 156.607 227.144 149.999 227.144C148.033 227.144 146.422 226.734 145.165 225.915C143.855 225.096 143.199 223.731 143.199 221.819C143.199 220.618 143.472 219.334 144.019 217.969C144.565 216.549 145.247 215.211 146.067 213.955C146.886 212.699 147.705 211.661 148.524 210.842C150.326 209.04 151.828 208.139 153.03 208.139C153.248 208.139 153.357 208.193 153.357 208.302C153.357 208.575 152.948 209.04 152.129 209.695C150.217 211.224 148.633 212.999 147.377 215.02C146.121 216.986 145.493 218.788 145.493 220.427C145.493 223.485 147.65 224.932 151.965 224.768C159.01 224.495 168.786 215.976 181.292 199.209C182.002 198.281 182.603 197.625 183.094 197.243L181.784 196.752C181.074 197.025 180.5 197.161 180.063 197.161C178.916 197.161 178.343 196.697 178.343 195.769C178.343 194.513 179.19 193.693 180.883 193.311C181.92 193.038 183.258 193.502 184.897 194.704C187.027 192.301 189.075 190.007 191.041 187.822C193.061 185.638 194.891 183.863 196.529 182.498C198.168 181.078 199.478 180.368 200.461 180.368C201.772 180.368 202.428 180.968 202.428 182.17C202.428 182.661 202.291 183.18 202.018 183.726C201.799 184.218 201.526 184.464 201.199 184.464C200.871 184.518 200.707 184.354 200.707 183.972C200.707 183.699 200.871 183.371 201.199 182.989V182.661C201.199 182.334 201.089 182.088 200.871 181.924C199.451 180.996 195.082 185.611 187.764 195.769C188.365 195.823 188.993 195.878 189.648 195.932C190.358 195.932 191.095 195.932 191.86 195.932C204.53 195.932 212.449 192.656 215.617 186.102C216.272 184.682 216.6 183.371 216.6 182.17C216.6 179.767 215.48 177.664 213.241 175.862C211.22 174.224 208.544 173.131 205.213 172.585C201.936 171.985 198.659 171.684 195.382 171.684C188.119 171.684 180.391 173.678 172.199 177.664C162.259 182.525 157.29 188.232 157.29 194.786C157.29 196.916 158.682 197.98 161.468 197.98C164.034 197.98 166.929 196.943 170.151 194.868C172.936 193.011 174.848 191.127 175.885 189.215C176.268 188.505 176.623 188.15 176.95 188.15C177.333 188.15 177.442 188.369 177.278 188.805C176.24 191.864 173.919 194.485 170.315 196.67C166.82 198.8 163.215 199.865 159.501 199.865C155.078 199.865 153.03 198.445 153.357 195.605C154.177 188.45 158.573 182.361 166.547 177.337C174.465 172.367 184.023 169.882 195.219 169.882C199.478 169.882 203.602 170.264 207.588 171.029C211.63 171.793 214.907 173.213 217.419 175.289C220.04 177.473 221.351 180.04 221.351 182.989C221.351 184.245 221.051 185.611 220.45 187.085C219.521 189.215 218.102 191.045 216.19 192.574C214.279 194.048 212.067 195.25 209.555 196.178C207.042 197.107 204.394 197.789 201.608 198.226C198.823 198.663 196.12 198.882 193.498 198.882C192.078 198.882 190.713 198.827 189.402 198.718C188.146 198.609 186.972 198.445 185.88 198.226C186.207 199.264 186.781 201.148 187.6 203.879C188.419 206.609 189.457 210.159 190.713 214.528C191.095 215.73 191.614 217.041 192.269 218.46C192.979 219.88 193.771 221.218 194.645 222.475C195.519 223.731 196.447 224.768 197.43 225.588C198.468 226.407 199.506 226.816 200.543 226.816C202.837 226.816 204.749 224.495 206.278 219.853C206.551 218.761 206.851 218.215 207.179 218.215C207.452 218.215 207.698 218.734 207.916 219.771C207.971 219.935 207.998 220.153 207.998 220.427C207.998 221.847 207.233 223.594 205.704 225.669C203.684 228.673 201.417 230.175 198.905 230.175ZM218.89 221.082C217.961 221.082 217.142 220.809 216.432 220.263C215.777 219.662 215.449 218.979 215.449 218.215C215.449 216.631 216.487 215.839 218.562 215.839C219.326 215.839 220.091 216.112 220.856 216.658C221.62 217.15 222.003 217.805 222.003 218.624C222.003 219.28 221.648 219.853 220.938 220.345C220.228 220.836 219.545 221.082 218.89 221.082ZM264.505 226.325C258.443 226.325 253.746 224.714 250.415 221.492C247.138 218.269 245.5 214.091 245.5 208.958C245.5 204.261 246.646 199.673 248.94 195.195C251.289 190.717 254.238 186.594 257.788 182.825C260.682 179.767 263.986 177.118 267.7 174.879C271.468 172.64 275.4 170.892 279.496 169.636C283.647 168.38 287.688 167.752 291.62 167.752C294.733 167.752 297.546 168.189 300.058 169.063C302.57 169.882 304.564 171.193 306.038 172.995C307.513 174.797 308.25 177.145 308.25 180.04C308.25 182.607 307.622 185.01 306.366 187.249C305.165 189.433 303.526 191.345 301.451 192.983C299.43 194.622 297.191 195.905 294.733 196.834C292.276 197.762 289.791 198.226 287.279 198.226C284.002 198.226 281.244 197.489 279.005 196.014C276.766 194.485 275.646 192.574 275.646 190.28C275.646 187.331 277.53 184.436 281.299 181.596C281.954 181.105 282.473 180.859 282.855 180.859C283.128 180.859 283.265 180.968 283.265 181.187C283.265 181.733 282.828 182.17 281.954 182.498C278.896 184.955 277.366 187.44 277.366 189.952C277.366 191.755 278.186 193.284 279.824 194.54C281.462 195.741 283.51 196.342 285.968 196.342C288.153 196.342 290.337 195.878 292.522 194.949C294.761 194.021 296.809 192.765 298.666 191.181C300.522 189.597 301.997 187.822 303.089 185.856C304.236 183.836 304.81 181.733 304.81 179.548C304.81 175.999 303.608 173.404 301.205 171.766C298.802 170.128 295.744 169.308 292.03 169.308C287.825 169.308 283.647 170.1 279.496 171.684C275.4 173.268 271.55 175.452 267.946 178.238C264.341 181.023 261.119 184.218 258.279 187.822C252.599 194.977 249.759 201.694 249.759 207.975C249.759 211.306 250.524 214.146 252.053 216.494C253.582 218.788 255.685 220.536 258.361 221.737C261.092 222.939 264.205 223.54 267.7 223.54C272.888 223.54 277.913 222.42 282.773 220.181C287.634 217.887 291.784 214.829 295.225 211.006C296.153 210.023 296.836 209.531 297.273 209.531C297.601 209.531 297.764 209.777 297.764 210.268C297.764 210.924 297.464 211.552 296.863 212.153C295.007 214.119 292.795 215.948 290.228 217.641C287.661 219.334 284.903 220.836 281.954 222.147C279.059 223.458 276.11 224.468 273.107 225.178C270.103 225.943 267.236 226.325 264.505 226.325ZM307.889 221.41C306.578 221.41 305.267 220.945 303.956 220.017C302.646 219.089 301.908 217.996 301.745 216.74C301.199 212.535 303.847 207.538 309.691 201.749C315.48 195.96 320.695 193.065 325.338 193.065C326.594 193.065 327.577 193.366 328.287 193.966C328.669 194.349 328.942 194.868 329.106 195.523C329.324 196.178 329.488 196.506 329.597 196.506C329.816 196.506 330.007 196.479 330.171 196.424C330.335 196.315 330.526 196.26 330.744 196.26C331.4 196.26 331.973 196.506 332.465 196.997C332.956 197.489 333.229 197.926 333.284 198.308C333.338 198.417 331.591 201.121 328.041 206.418C324.491 211.607 322.88 215.129 323.208 216.986C323.481 218.242 324.081 218.87 325.01 218.87C327.85 218.87 333.038 214.173 340.575 204.78C340.739 204.561 340.902 204.452 341.066 204.452C341.339 204.452 341.476 204.643 341.476 205.026C341.476 205.463 341.23 206.009 340.739 206.664C333.803 216.003 328.478 220.672 324.764 220.672C324.273 220.672 323.808 220.59 323.372 220.427C320.969 219.498 319.767 217.696 319.767 215.02C319.767 214.091 319.876 213.163 320.095 212.235L315.016 217.15C313.487 218.679 312.094 219.771 310.838 220.427C309.636 221.082 308.653 221.41 307.889 221.41ZM307.151 219.607C310.319 219.607 314.633 216.139 320.095 209.204L328.778 197.243C328.341 196.479 327.631 196.096 326.648 196.096C323.317 196.096 318.811 198.772 313.132 204.124C307.233 209.586 304.585 214.091 305.185 217.641C305.458 218.952 306.114 219.607 307.151 219.607ZM352.872 221.41C350.523 221.41 348.912 220.809 348.038 219.607C347.165 218.351 346.728 216.686 346.728 214.61C346.728 212.316 347.438 209.586 348.858 206.418C349.404 205.162 349.977 204.043 350.578 203.06C351.179 202.022 351.807 201.066 352.462 200.192C352.244 200.247 352.052 200.274 351.889 200.274C351.725 200.274 351.561 200.274 351.397 200.274C350.086 200.274 348.994 199.346 348.12 197.489L342.058 205.353C338.836 209.559 336.87 211.661 336.16 211.661C335.887 211.661 335.75 211.552 335.75 211.333C335.75 211.06 335.887 210.705 336.16 210.268C336.324 209.941 336.652 209.504 337.143 208.958C339.218 206.555 341.13 204.179 342.877 201.831C344.625 199.482 346.072 197.189 347.219 194.949C348.475 190.198 350.059 187.822 351.971 187.822C353.227 187.822 353.855 188.396 353.855 189.543C353.855 190.58 353.172 191.946 351.807 193.639C350.496 195.332 349.841 196.206 349.841 196.26C349.841 197.407 350.687 197.98 352.38 197.98C353.363 197.98 354.455 197.625 355.657 196.916L357.787 195.605C357.896 195.55 358.06 195.523 358.278 195.523C358.934 195.523 359.507 195.796 359.999 196.342C360.49 196.888 360.654 197.38 360.49 197.817L354.838 204.944C351.343 209.422 349.595 213.026 349.595 215.757C349.595 218.215 350.796 219.444 353.199 219.444C354.838 219.444 356.585 218.952 358.442 217.969C360.354 216.986 362.183 215.784 363.931 214.364C365.733 212.89 367.235 211.47 368.436 210.105L370.403 207.811C370.512 207.702 370.648 207.565 370.812 207.401C370.976 207.237 371.113 207.156 371.222 207.156C371.604 207.156 371.795 207.347 371.795 207.729C371.795 207.838 371.741 208.029 371.631 208.302C371.522 208.575 371.331 208.876 371.058 209.204L368.436 212.153C367.18 213.573 365.624 215.02 363.767 216.494C361.965 217.914 360.081 219.089 358.115 220.017C356.203 220.945 354.455 221.41 352.872 221.41ZM374.626 221.164C373.042 221.164 371.568 220.782 370.202 220.017C368.837 219.198 368.154 217.86 368.154 216.003C368.154 213.436 369.055 210.378 370.858 206.828C372.714 203.278 374.817 199.592 377.165 195.769C383.555 185.392 388.088 180.204 390.764 180.204C391.31 180.204 391.856 180.422 392.403 180.859C393.003 181.241 393.331 181.678 393.386 182.17L387.651 189.87C385.412 192.874 383.391 195.659 381.589 198.226C379.787 200.738 378.23 203.005 376.92 205.026C376.264 206.063 375.527 207.237 374.708 208.548C373.889 209.859 373.151 211.224 372.496 212.644C371.895 214.009 371.595 215.402 371.595 216.822C371.595 217.477 371.786 218.078 372.168 218.624C372.551 219.116 373.233 219.362 374.216 219.362C375.964 219.362 378.258 218.433 381.098 216.576C383.937 214.665 386.75 212.043 389.535 208.712C389.808 208.384 390.109 208.084 390.436 207.811C390.764 207.538 391.037 207.401 391.256 207.401C391.529 207.401 391.665 207.565 391.665 207.893C391.665 208.057 391.474 208.384 391.092 208.876C390.764 209.313 390.491 209.668 390.273 209.941L388.307 212.153C387.214 213.354 385.904 214.665 384.374 216.085C382.9 217.505 381.316 218.706 379.623 219.689C377.985 220.672 376.319 221.164 374.626 221.164ZM391.843 221.164C390.477 221.164 389.412 220.536 388.648 219.28C387.883 217.969 387.501 216.713 387.501 215.511C387.501 212.235 389.876 207.647 394.628 201.749C399.434 195.796 403.311 192.82 406.26 192.82C409.046 192.82 410.438 194.294 410.438 197.243C410.438 197.68 410.384 198.144 410.275 198.636C410.22 199.127 410.138 199.646 410.029 200.192C410.138 200.356 410.411 200.438 410.848 200.438C412.323 200.438 414.07 199.919 416.091 198.882C416.036 199.81 413.879 201.148 409.619 202.896C410.22 204.698 408.418 208.139 404.212 213.218C399.898 218.515 396.212 221.164 393.153 221.164H391.843ZM393.317 218.706C395.666 218.706 398.669 216.549 402.328 212.235C405.878 208.029 407.653 204.998 407.653 203.141C406.779 202.65 405.687 201.394 404.376 199.373C402.519 199.373 399.843 201.612 396.348 206.091C392.908 210.46 391.242 213.818 391.351 216.167C391.406 217.86 392.061 218.706 393.317 218.706ZM420.781 221.164C418.214 221.164 416.303 220.317 415.046 218.624C413.845 216.931 412.862 214.583 412.097 211.579C411.114 212.562 410.432 213.054 410.049 213.054C409.776 213.054 409.64 212.835 409.64 212.398C409.64 212.071 409.776 211.77 410.049 211.497C410.049 211.497 410.732 210.651 412.097 208.958C413.517 207.265 415.893 204.889 419.224 201.831L429.546 192.164C430.966 190.799 432.086 189.761 432.905 189.051C433.779 188.341 434.407 187.986 434.789 187.986C436.537 187.986 437.411 188.642 437.411 189.952C437.411 190.608 437.056 191.372 436.346 192.246C435.799 192.901 435.39 193.42 435.117 193.803C434.898 194.13 434.762 194.321 434.707 194.376C433.724 196.069 432.823 199.1 432.004 203.469C431.403 206.691 430.884 209.34 430.447 211.415C430.01 213.491 429.655 214.993 429.382 215.921C431.676 215.866 433.943 215.156 436.182 213.791C438.421 212.426 440.824 210.187 443.391 207.074C443.5 206.964 443.664 206.801 443.882 206.582C444.101 206.364 444.319 206.254 444.538 206.254C444.865 206.254 445.029 206.391 445.029 206.664C445.029 206.937 444.947 207.21 444.783 207.483C444.62 207.756 444.456 208.002 444.292 208.22C442.599 210.241 441.015 211.907 439.54 213.218C438.066 214.474 436.509 215.484 434.871 216.249C433.233 216.959 431.294 217.559 429.055 218.051L426.433 219.771C425.723 220.263 424.877 220.618 423.894 220.836C422.911 221.055 421.873 221.164 420.781 221.164ZM421.764 216.986C423.02 216.986 424.058 216.686 424.877 216.085C425.478 215.757 426.051 214.856 426.597 213.381C427.198 211.852 427.771 209.968 428.317 207.729C428.754 205.817 429.082 203.961 429.3 202.158C429.574 200.302 429.819 198.527 430.038 196.834L430.365 194.048C429.109 194.977 427.526 196.315 425.614 198.062C423.703 199.81 421.818 201.64 419.962 203.551C418.105 205.463 416.903 206.882 416.357 207.811C415.811 208.685 415.511 209.34 415.456 209.777C415.238 211.961 415.756 213.709 417.012 215.02C418.323 216.331 419.907 216.986 421.764 216.986ZM69.7798 327.751C60.6594 328.188 54.1058 325.922 50.119 320.952C45.3131 324.666 41.7905 326.523 39.5513 326.523C38.3499 326.523 37.4487 325.922 36.848 324.72C36.3019 323.573 36.0288 322.317 36.0288 320.952C36.0288 318.331 37.0391 314.562 39.0598 309.647C41.4628 304.076 43.6747 301.291 45.6953 301.291C46.733 301.291 47.5249 302.93 48.071 306.206C48.9995 311.122 49.846 314.508 50.6105 316.364C52.4128 314.453 54.6519 311.859 57.328 308.582C60.0587 305.305 63.1989 301.346 66.7488 296.704C75.5962 285.071 81.4671 278.709 84.3616 277.616C85.3446 277.234 86.3277 277.043 87.3107 277.043C88.403 277.043 89.2768 277.289 89.9322 277.78C90.6421 278.217 90.9971 278.736 90.9971 279.337C90.9971 280.265 90.2052 280.811 88.6214 280.975C87.4746 281.576 86.0546 282.613 84.3616 284.088C82.7232 285.563 80.9756 287.256 79.1187 289.167C77.3165 291.024 75.6235 292.881 74.0397 294.738C72.4559 296.54 71.1725 298.096 70.1894 299.407C64.3458 307.544 58.5022 314.043 52.6585 318.904L52.167 319.314C53.9147 321.88 56.0173 323.655 58.4749 324.638C60.9325 325.621 63.6631 326.113 66.6669 326.113C71.6367 326.113 76.3607 325.348 80.839 323.819C85.3719 322.345 89.4406 320.133 93.0451 317.184C96.7042 314.18 99.7079 310.521 102.056 306.206C104.623 301.51 105.907 297.031 105.907 292.772C105.907 289.877 105.279 287.146 104.022 284.58C102.766 281.958 101.073 279.719 98.9434 277.862C96.8681 276.005 94.547 274.804 91.9802 274.258C88.9764 273.602 85.8362 273.275 82.5594 273.275C74.1489 273.275 66.3938 275.213 59.2941 279.091C51.812 283.187 48.071 287.774 48.071 292.853C48.071 294.219 48.4806 295.393 49.2998 296.376C49.9552 297.141 50.4194 297.577 50.6925 297.687H50.2009C48.6718 297.414 47.3611 296.649 46.2688 295.393C45.1765 294.137 44.6304 292.744 44.6304 291.215C44.6304 288.375 45.5042 285.781 47.2518 283.433C49.0541 281.03 51.6482 278.845 55.0342 276.879C61.8063 273.001 69.8071 271.063 79.0368 271.063C81.1121 271.063 83.1874 271.172 85.2627 271.39C87.338 271.609 89.386 271.937 91.4067 272.373C94.9566 273.138 98.1788 274.585 101.073 276.715C103.968 278.845 106.289 281.439 108.036 284.498C109.784 287.556 110.658 290.86 110.658 294.41C110.658 298.506 109.456 302.738 107.053 307.108C104.65 311.531 101.537 315.245 97.7146 318.249C93.9462 321.198 89.6864 323.437 84.935 324.966C80.1837 326.55 75.1319 327.478 69.7798 327.751ZM39.9609 325.048C42.3093 324.01 45.1492 321.853 48.4806 318.576C46.8968 315.955 45.8592 313.743 45.3677 311.941C45.04 310.739 44.7942 308.91 44.6304 306.452C40.8621 311.859 38.9779 316.583 38.9779 320.624C38.9779 322.317 39.3056 323.792 39.9609 325.048ZM115.729 323.41C114.418 323.41 113.107 322.945 111.796 322.017C110.486 321.089 109.748 319.996 109.585 318.74C109.038 314.535 111.687 309.538 117.531 303.749C123.32 297.96 128.535 295.065 133.178 295.065C134.434 295.065 135.417 295.366 136.127 295.966C136.509 296.349 136.782 296.868 136.946 297.523C137.164 298.178 137.328 298.506 137.437 298.506C137.656 298.506 137.847 298.479 138.011 298.424C138.175 298.315 138.366 298.26 138.584 298.26C139.24 298.26 139.813 298.506 140.305 298.997C140.796 299.489 141.069 299.926 141.124 300.308C141.178 300.417 139.431 303.121 135.881 308.418C132.331 313.607 130.72 317.129 131.048 318.986C131.321 320.242 131.921 320.87 132.85 320.87C135.69 320.87 140.878 316.173 148.415 306.78C148.579 306.561 148.742 306.452 148.906 306.452C149.179 306.452 149.316 306.643 149.316 307.026C149.316 307.463 149.07 308.009 148.579 308.664C141.643 318.003 136.318 322.672 132.604 322.672C132.113 322.672 131.648 322.59 131.212 322.427C128.809 321.498 127.607 319.696 127.607 317.02C127.607 316.091 127.716 315.163 127.935 314.235L122.856 319.15C121.326 320.679 119.934 321.771 118.678 322.427C117.476 323.082 116.493 323.41 115.729 323.41ZM114.991 321.607C118.159 321.607 122.473 318.139 127.935 311.204L136.618 299.243C136.181 298.479 135.471 298.096 134.488 298.096C131.157 298.096 126.651 300.772 120.972 306.124C115.073 311.586 112.425 316.091 113.025 319.641C113.298 320.952 113.954 321.607 114.991 321.607ZM164.89 323.164C163.415 323.164 162.377 322.754 161.777 321.935C161.176 321.061 160.876 319.996 160.876 318.74C160.876 315.573 161.968 312.187 164.152 308.582L169.395 300.062C165.681 302.793 161.995 306.206 158.336 310.302C157.353 311.395 156.233 312.678 154.977 314.153C153.776 315.627 152.438 317.32 150.963 319.232C148.997 321.799 147.823 323.082 147.441 323.082C146.676 323.082 146.048 322.754 145.556 322.099C145.065 321.389 144.819 320.761 144.819 320.215C144.819 319.778 144.956 318.986 145.229 317.839C145.502 316.638 145.83 315.6 146.212 314.726C146.594 313.798 146.976 312.897 147.359 312.023C147.796 311.094 148.205 310.193 148.588 309.319L143.672 314.48C143.563 314.59 143.235 314.917 142.689 315.463C142.143 316.009 141.706 316.283 141.379 316.283C141.105 316.283 140.969 316.091 140.969 315.709C140.969 315.6 141.024 315.463 141.133 315.3C141.187 315.081 141.351 314.835 141.624 314.562C142.444 313.743 143.29 312.869 144.164 311.941C145.038 311.012 145.939 309.947 146.867 308.746C147.359 308.145 148.096 307.244 149.079 306.043C150.062 304.786 151.127 303.448 152.274 302.028C153.475 300.609 154.595 299.298 155.633 298.096C155.906 297.714 156.206 297.468 156.534 297.359C156.861 297.195 157.08 297.113 157.189 297.113C158.664 297.113 159.401 297.687 159.401 298.834C159.401 299.161 159.319 299.489 159.155 299.817C154.24 306.589 151.291 311.75 150.308 315.3C156.643 308.964 161.722 304.213 165.545 301.045C169.423 297.823 172.18 296.212 173.819 296.212C174.693 296.212 175.348 296.349 175.785 296.622C176.276 296.895 176.522 297.414 176.522 298.178C176.522 298.451 176.495 298.67 176.44 298.834C176.276 299.216 175.157 300.745 173.082 303.421C171.825 304.95 170.706 306.343 169.723 307.599C168.794 308.855 168.03 309.947 167.429 310.876C166.446 312.405 165.709 313.852 165.217 315.218C164.726 316.528 164.48 317.648 164.48 318.576C164.48 318.959 164.535 319.423 164.644 319.969C164.753 320.515 165.081 320.788 165.627 320.788C166.883 320.788 168.849 319.696 171.525 317.511C172.781 316.419 173.955 315.327 175.048 314.235C176.14 313.088 177.178 311.968 178.161 310.876C178.379 310.657 178.734 310.248 179.226 309.647C179.717 308.992 180.017 308.664 180.127 308.664C180.345 308.664 180.454 308.882 180.454 309.319C180.454 309.538 180.318 309.92 180.045 310.466C179.826 310.958 179.581 311.34 179.308 311.613C178.707 312.323 177.806 313.306 176.604 314.562C175.457 315.818 174.147 317.102 172.672 318.412C171.252 319.723 169.859 320.843 168.494 321.771C167.129 322.7 165.927 323.164 164.89 323.164ZM182.119 323.492C180.371 323.492 178.979 323.082 177.941 322.263C176.958 321.389 176.467 319.86 176.467 317.675C176.467 316.419 176.849 314.835 177.613 312.924C178.378 310.958 179.334 308.855 180.481 306.616C181.628 304.377 182.774 302.165 183.921 299.98C183.211 300.144 182.583 300.226 182.037 300.226C180.399 300.226 179.58 299.598 179.58 298.342C179.58 297.741 179.798 297.277 180.235 296.949C180.726 296.622 181.163 296.431 181.546 296.376C181.546 296.376 181.6 296.376 181.709 296.376C181.873 296.376 182.064 296.349 182.283 296.294H187.034C188.017 295.038 189.028 293.7 190.065 292.28C191.54 290.423 192.714 289.331 193.588 289.003H193.834C194.216 289.003 194.762 289.194 195.472 289.577C196.346 290.068 196.783 290.56 196.783 291.051C196.783 291.761 195.472 293.591 192.851 296.54C193.342 296.594 194.052 296.622 194.98 296.622C195.909 296.622 197.056 296.622 198.421 296.622C199.076 296.622 200.005 296.622 201.206 296.622C202.463 296.622 203.746 296.622 205.057 296.622C206.422 296.567 207.596 296.54 208.579 296.54C209.562 296.485 210.108 296.458 210.218 296.458C210.381 296.513 210.463 296.594 210.463 296.704C210.463 297.195 207.241 297.851 200.797 298.67C197.138 299.161 194.325 299.544 192.359 299.817C190.448 300.09 189.41 300.254 189.246 300.308C188.481 300.964 187.553 302.083 186.461 303.667C185.369 305.251 184.276 307.026 183.184 308.992C182.092 310.958 181.163 312.842 180.399 314.644C179.689 316.392 179.334 317.757 179.334 318.74C179.334 319.614 179.661 320.351 180.317 320.952C180.972 321.498 182.037 321.771 183.512 321.771C184.495 321.771 185.669 321.553 187.034 321.116C188.4 320.679 189.683 320.187 190.884 319.641C192.141 319.041 193.042 318.576 193.588 318.249C195.008 317.375 196.564 316.228 198.257 314.808C200.005 313.333 201.725 311.668 203.418 309.811C204.183 309.046 204.702 308.664 204.975 308.664C205.139 308.664 205.22 308.773 205.22 308.992C205.22 309.429 204.811 310.139 203.992 311.122C202.681 312.705 201.206 314.235 199.568 315.709C197.984 317.129 196.209 318.44 194.243 319.641C192.004 321.007 189.847 321.99 187.772 322.59C185.751 323.191 183.867 323.492 182.119 323.492ZM205.538 324.065C203.79 324.065 202.207 323.519 200.787 322.427C199.367 321.28 198.657 319.778 198.657 317.921C198.657 314.043 201.032 309.62 205.784 304.65C210.644 299.625 214.986 297.113 218.809 297.113C220.065 297.113 221.075 297.468 221.84 298.178C222.659 298.834 223.069 299.653 223.069 300.636C223.069 303.694 220.639 306.698 215.778 309.647C211.463 312.268 207.832 313.579 204.883 313.579C204.446 313.579 204.063 313.525 203.736 313.415C202.916 314.89 202.507 316.446 202.507 318.085C202.507 320.925 203.845 322.345 206.521 322.345C209.252 322.345 212.774 320.515 217.089 316.856C220.42 314.18 223.26 311.34 225.608 308.336C226.1 307.681 226.537 307.353 226.919 307.353C227.247 307.353 227.411 307.517 227.411 307.845C227.411 308.172 227.192 308.637 226.755 309.237C225.226 311.258 223.588 313.115 221.84 314.808C220.092 316.501 218.208 318.057 216.188 319.477C211.982 322.536 208.432 324.065 205.538 324.065ZM206.029 311.777C208.105 311.777 210.808 310.739 214.14 308.664C215.232 307.899 216.297 307.053 217.334 306.124C218.427 305.141 219.3 304.158 219.956 303.175C220.666 302.192 221.021 301.319 221.021 300.554C221.021 299.844 220.447 299.489 219.3 299.489C217.662 299.489 215.368 300.718 212.419 303.175C210.999 304.377 209.634 305.688 208.323 307.108C207.012 308.527 205.893 310.029 204.964 311.613C205.292 311.722 205.647 311.777 206.029 311.777ZM316.054 328.489C315.071 328.489 314.416 328.243 314.088 327.751C313.105 326.331 312.614 324.611 312.614 322.59C312.614 317.894 315.126 311.149 320.15 302.356C323.373 296.84 328.342 289.413 335.06 280.074C332.22 282.422 329.134 285.126 325.803 288.184C322.471 291.242 318.894 294.628 315.071 298.342C310.102 303.203 306.033 307.49 302.865 311.204C299.752 314.863 297.513 317.894 296.148 320.297C294.728 322.863 293.008 324.147 290.987 324.147C290.058 324.147 289.594 323.819 289.594 323.164C289.594 322.945 289.676 322.727 289.84 322.508C290.768 321.034 291.97 319.095 293.444 316.692C294.919 314.235 296.667 311.313 298.687 307.927C304.586 297.659 308.818 289.495 311.385 283.433C312.313 281.139 312.778 279.473 312.778 278.436C312.778 277.562 312.477 277.125 311.876 277.125C311.057 277.125 309.774 277.862 308.026 279.337C301.964 284.416 295.165 291.488 287.628 300.554C284.461 304.322 281.675 307.817 279.272 311.04C276.924 314.207 274.931 317.074 273.292 319.641C271.981 321.662 271.326 323.109 271.326 323.983C271.326 324.311 271.435 324.529 271.654 324.638C271.927 324.802 272.063 324.884 272.063 324.884C272.063 324.939 271.572 325.348 270.589 326.113C269.715 326.55 268.732 326.768 267.64 326.768C265.401 326.768 264.445 326.249 264.772 325.212C265.537 322.754 268.077 318.303 272.391 311.859C278.016 303.503 281.675 297.796 283.368 294.738C287.027 288.129 288.857 282.859 288.857 278.927C288.857 276.196 288.147 274.258 286.727 273.111C285.307 271.964 283.15 271.39 280.255 271.39C273.866 271.39 267.257 274.148 260.431 279.664C257.482 282.067 254.724 284.798 252.157 287.856C249.59 290.86 247.515 294 245.931 297.277C244.347 300.554 243.555 303.776 243.555 306.944C243.555 312.623 246.231 315.463 251.583 315.463C257.864 315.463 262.724 313.197 266.165 308.664C267.476 306.862 268.131 305.169 268.131 303.585C268.131 302.657 267.858 302.028 267.312 301.701C267.257 301.646 267.23 301.564 267.23 301.455C267.23 301.237 267.394 301.127 267.722 301.127C269.142 301.127 269.852 302.056 269.852 303.913C269.852 305.06 269.36 306.507 268.377 308.254C267.121 310.439 265.237 312.296 262.724 313.825C259.557 315.791 256.062 316.774 252.239 316.774C248.525 316.774 245.549 315.6 243.309 313.252C241.07 310.903 239.951 307.817 239.951 303.995C239.951 295.366 245.576 286.546 256.826 277.534C258.902 275.896 261.359 274.503 264.199 273.356C267.094 272.155 270.07 271.254 273.128 270.653C276.187 269.998 278.999 269.67 281.566 269.67C285.28 269.67 288.092 270.298 290.004 271.554C291.97 272.756 292.953 274.886 292.953 277.944C292.953 281.767 291.396 286.928 288.284 293.427C287.3 295.448 285.089 299.134 281.648 304.486L287.956 296.458C289.54 294.383 291.67 291.925 294.346 289.085C297.022 286.245 300.189 283.023 303.848 279.419C305.432 277.889 307.234 276.579 309.255 275.486C311.276 274.394 312.996 273.848 314.416 273.848C316.382 273.848 317.365 274.886 317.365 276.961C317.365 278.763 316.628 281.221 315.153 284.334C313.187 288.484 310.73 293.318 307.78 298.834C306.852 300.527 306.224 301.974 305.896 303.175C305.569 304.377 305.35 305.06 305.241 305.223C305.459 304.95 305.978 304.322 306.797 303.339C307.671 302.302 308.873 300.909 310.402 299.161C312.259 297.086 314.471 294.82 317.037 292.362C319.604 289.85 322.553 287.174 325.885 284.334L338.992 273.52C340.03 272.647 340.958 272.21 341.777 272.21C342.542 272.21 343.088 272.674 343.416 273.602C343.798 274.476 344.18 275.623 344.563 277.043C344.836 277.971 343.525 279.91 340.63 282.859C333.804 289.85 327.906 297.659 322.936 306.288C318.403 314.262 316.136 320.024 316.136 323.573C316.136 325.157 316.655 325.949 317.693 325.949C318.348 325.949 319.987 325.376 322.608 324.229C324.902 323.191 326.404 322.59 327.114 322.427C327.387 322.536 327.523 322.672 327.523 322.836C327.523 323.655 326.076 324.802 323.181 326.277C320.342 327.751 317.966 328.489 316.054 328.489ZM337.169 323.41C335.858 323.41 334.547 322.945 333.236 322.017C331.926 321.089 331.188 319.996 331.025 318.74C330.478 314.535 333.127 309.538 338.971 303.749C344.76 297.96 349.975 295.065 354.618 295.065C355.874 295.065 356.857 295.366 357.567 295.966C357.949 296.349 358.222 296.868 358.386 297.523C358.604 298.178 358.768 298.506 358.877 298.506C359.096 298.506 359.287 298.479 359.451 298.424C359.615 298.315 359.806 298.26 360.024 298.26C360.68 298.26 361.253 298.506 361.745 298.997C362.236 299.489 362.509 299.926 362.564 300.308C362.618 300.417 360.871 303.121 357.321 308.418C353.771 313.607 352.16 317.129 352.488 318.986C352.761 320.242 353.361 320.87 354.29 320.87C357.13 320.87 362.318 316.173 369.855 306.78C370.019 306.561 370.182 306.452 370.346 306.452C370.619 306.452 370.756 306.643 370.756 307.026C370.756 307.463 370.51 308.009 370.019 308.664C363.083 318.003 357.758 322.672 354.044 322.672C353.553 322.672 353.088 322.59 352.652 322.427C350.249 321.498 349.047 319.696 349.047 317.02C349.047 316.091 349.156 315.163 349.375 314.235L344.296 319.15C342.767 320.679 341.374 321.771 340.118 322.427C338.916 323.082 337.933 323.41 337.169 323.41ZM336.431 321.607C339.599 321.607 343.913 318.139 349.375 311.204L358.058 299.243C357.621 298.479 356.911 298.096 355.928 298.096C352.597 298.096 348.091 300.772 342.412 306.124C336.513 311.586 333.865 316.091 334.465 319.641C334.738 320.952 335.394 321.607 336.431 321.607ZM374.861 323.164C372.294 323.164 370.383 322.317 369.126 320.624C367.925 318.931 366.942 316.583 366.177 313.579C365.194 314.562 364.512 315.054 364.129 315.054C363.856 315.054 363.72 314.835 363.72 314.398C363.72 314.071 363.856 313.77 364.129 313.497C364.129 313.497 364.812 312.651 366.177 310.958C367.597 309.265 369.973 306.889 373.304 303.831L383.626 294.164C385.046 292.799 386.166 291.761 386.985 291.051C387.859 290.341 388.487 289.986 388.869 289.986C390.617 289.986 391.491 290.642 391.491 291.952C391.491 292.608 391.136 293.372 390.426 294.246C389.879 294.901 389.47 295.42 389.197 295.803C388.978 296.13 388.842 296.321 388.787 296.376C387.804 298.069 386.903 301.1 386.084 305.469C385.483 308.691 384.964 311.34 384.527 313.415C384.09 315.491 383.735 316.993 383.462 317.921C385.756 317.866 388.023 317.156 390.262 315.791C392.501 314.426 394.904 312.187 397.471 309.074C397.58 308.964 397.744 308.801 397.962 308.582C398.181 308.364 398.399 308.254 398.618 308.254C398.945 308.254 399.109 308.391 399.109 308.664C399.109 308.937 399.027 309.21 398.863 309.483C398.7 309.756 398.536 310.002 398.372 310.22C396.679 312.241 395.095 313.907 393.62 315.218C392.146 316.474 390.589 317.484 388.951 318.249C387.313 318.959 385.374 319.559 383.135 320.051L380.513 321.771C379.803 322.263 378.957 322.618 377.974 322.836C376.991 323.055 375.953 323.164 374.861 323.164ZM375.844 318.986C377.1 318.986 378.138 318.686 378.957 318.085C379.558 317.757 380.131 316.856 380.677 315.381C381.278 313.852 381.851 311.968 382.397 309.729C382.834 307.817 383.162 305.961 383.38 304.158C383.654 302.302 383.899 300.527 384.118 298.834L384.445 296.048C383.189 296.977 381.606 298.315 379.694 300.062C377.783 301.81 375.898 303.64 374.042 305.551C372.185 307.463 370.983 308.882 370.437 309.811C369.891 310.685 369.591 311.34 369.536 311.777C369.318 313.961 369.836 315.709 371.092 317.02C372.403 318.331 373.987 318.986 375.844 318.986ZM399.058 324.065C397.31 324.065 395.727 323.519 394.307 322.427C392.887 321.28 392.177 319.778 392.177 317.921C392.177 314.043 394.552 309.62 399.304 304.65C404.164 299.625 408.506 297.113 412.329 297.113C413.585 297.113 414.595 297.468 415.36 298.178C416.179 298.834 416.589 299.653 416.589 300.636C416.589 303.694 414.159 306.698 409.298 309.647C404.983 312.268 401.352 313.579 398.403 313.579C397.966 313.579 397.583 313.525 397.256 313.415C396.436 314.89 396.027 316.446 396.027 318.085C396.027 320.925 397.365 322.345 400.041 322.345C402.772 322.345 406.294 320.515 410.609 316.856C413.94 314.18 416.78 311.34 419.128 308.336C419.62 307.681 420.057 307.353 420.439 307.353C420.767 307.353 420.931 307.517 420.931 307.845C420.931 308.172 420.712 308.637 420.275 309.237C418.746 311.258 417.108 313.115 415.36 314.808C413.612 316.501 411.728 318.057 409.708 319.477C405.502 322.536 401.952 324.065 399.058 324.065ZM399.549 311.777C401.625 311.777 404.328 310.739 407.66 308.664C408.752 307.899 409.817 307.053 410.854 306.124C411.947 305.141 412.82 304.158 413.476 303.175C414.186 302.192 414.541 301.319 414.541 300.554C414.541 299.844 413.967 299.489 412.82 299.489C411.182 299.489 408.888 300.718 405.939 303.175C404.519 304.377 403.154 305.688 401.843 307.108C400.532 308.527 399.413 310.029 398.484 311.613C398.812 311.722 399.167 311.777 399.549 311.777ZM421.409 323.41C419.77 323.41 418.378 322.973 417.231 322.099C416.084 321.17 415.428 320.051 415.265 318.74C415.046 316.993 415.292 315.245 416.002 313.497C416.767 311.695 417.777 309.975 419.033 308.336C420.344 306.698 421.736 305.169 423.211 303.749C429 297.96 434.215 295.065 438.858 295.065C440.441 295.065 441.506 295.475 442.052 296.294C442.271 296.567 442.517 297.195 442.79 298.178C448.906 288.239 453.166 283.269 455.569 283.269C456.115 283.269 456.689 283.405 457.29 283.678C457.89 283.951 458.191 284.306 458.191 284.743C458.191 285.016 458.054 285.371 457.781 285.808C456.143 287.829 454.504 289.85 452.866 291.87C451.228 293.836 449.616 295.83 448.033 297.851C445.357 301.237 443.199 304.186 441.561 306.698C439.923 309.21 438.748 311.34 438.038 313.088C437.82 313.634 437.602 314.316 437.383 315.136C437.219 315.9 437.137 316.692 437.137 317.511C437.137 318.549 437.356 319.45 437.793 320.215C438.23 320.979 439.021 321.362 440.168 321.362C441.971 321.362 444.182 320.488 446.804 318.74C449.425 316.993 452.484 314.125 455.979 310.139C456.197 309.92 456.388 309.729 456.552 309.565C456.771 309.401 456.989 309.292 457.208 309.237C457.699 309.128 457.945 309.237 457.945 309.565C457.945 309.729 457.781 310.029 457.453 310.466C455.76 312.487 453.876 314.48 451.801 316.446C449.726 318.412 447.596 320.051 445.411 321.362C443.281 322.618 441.288 323.246 439.431 323.246C437.574 323.246 436.263 322.618 435.499 321.362C434.734 320.105 434.352 318.686 434.352 317.102C434.352 315.463 434.652 313.961 435.253 312.596L428.618 319.232C427.143 320.706 425.778 321.771 424.522 322.427C423.32 323.082 422.282 323.41 421.409 323.41ZM420.671 321.607C423.02 321.607 426.925 318.385 432.386 311.941C432.659 311.613 433.615 310.412 435.253 308.336C436.892 306.206 439.213 303.121 442.216 299.079C441.834 298.424 441.179 298.096 440.25 298.096C436.864 298.096 432.331 300.772 426.652 306.124C421.299 311.094 418.623 315.272 418.623 318.658C418.623 320.624 419.306 321.607 420.671 321.607ZM457.683 323.164C456.317 323.164 455.252 322.536 454.488 321.28C453.723 319.969 453.341 318.713 453.341 317.511C453.341 314.235 455.716 309.647 460.468 303.749C465.274 297.796 469.151 294.82 472.1 294.82C474.886 294.82 476.278 296.294 476.278 299.243C476.278 299.68 476.224 300.144 476.115 300.636C476.06 301.127 475.978 301.646 475.869 302.192C475.978 302.356 476.251 302.438 476.688 302.438C478.163 302.438 479.91 301.919 481.931 300.882C481.876 301.81 479.719 303.148 475.459 304.896C476.06 306.698 474.258 310.139 470.052 315.218C465.738 320.515 462.052 323.164 458.993 323.164H457.683ZM459.157 320.706C461.505 320.706 464.509 318.549 468.168 314.235C471.718 310.029 473.493 306.998 473.493 305.141C472.619 304.65 471.527 303.394 470.216 301.373C468.359 301.373 465.683 303.612 462.188 308.091C458.748 312.46 457.082 315.818 457.191 318.167C457.246 319.86 457.901 320.706 459.157 320.706Z" fill="white"/>
</g>
<defs>
<filter id="filter0_d_23_9" x="36.0288" y="152.392" width="497.102" height="211.937" filterUnits="userSpaceOnUse" color-interpolation-filters="sRGB">
<feFlood flood-opacity="0" result="BackgroundImageFix"/>
<feColorMatrix in="SourceAlpha" type="matrix" values="0 0 0 0 0 0 0 0 0 0 0 0 0 0 0 0 0 0 127 0" result="hardAlpha"/>
<feOffset dx="25.6" dy="10.24"/>
<feGaussianBlur stdDeviation="12.8"/>
<feComposite in2="hardAlpha" operator="out"/>
<feColorMatrix type="matrix" values="0 0 0 0 0 0 0 0 0 0 0 0 0 0 0 0 0 0 0.25 0"/>
<feBlend mode="normal" in2="BackgroundImageFix" result="effect1_dropShadow_23_9"/>
<feBlend mode="normal" in="SourceGraphic" in2="effect1_dropShadow_23_9" result="shape"/>
</filter>
<linearGradient id="paint0_linear_23_9" x1="79.6444" y1="70.1897" x2="469.38" y2="399.406" gradientUnits="userSpaceOnUse">
<stop stop-color="#235347" stop-opacity="0.5"/>
<stop offset="0.5" stop-color="#235347" stop-opacity="0.96"/>
<stop offset="1" stop-color="#235347" stop-opacity="0.5"/>
</linearGradient>
</defs>
</svg>
